<mxfile modified="2021-05-04T11:31:35.715Z" host="app.diagrams.net" agent="5.0 (Windows NT 10.0; Win64; x64) AppleWebKit/537.36 (KHTML, like Gecko) Chrome/90.0.4430.93 Safari/537.36" etag="I3PrP9CeqvUv44hvPhvO" version="14.6.9" type="github">
  <diagram id="Ht1M8jgEwFfnCIfOTk4-" name="Page-1">
    <mxGraphModel dx="1182" dy="772" grid="1" gridSize="10" guides="1" tooltips="1" connect="1" arrows="1" fold="1" page="1" pageScale="1" pageWidth="1169" pageHeight="827" math="0" shadow="0">
      <root>
        <mxCell id="0" />
        <mxCell id="1" parent="0" />
        <mxCell id="Fiv4lahHjwLAKPsO6Myc-4" style="edgeStyle=orthogonalEdgeStyle;rounded=0;orthogonalLoop=1;jettySize=auto;html=1;entryX=0.5;entryY=0;entryDx=0;entryDy=0;" edge="1" parent="1" source="Fiv4lahHjwLAKPsO6Myc-1" target="Fiv4lahHjwLAKPsO6Myc-3">
          <mxGeometry relative="1" as="geometry">
            <Array as="points">
              <mxPoint x="834" y="60" />
              <mxPoint x="834" y="30" />
              <mxPoint x="1304" y="30" />
            </Array>
          </mxGeometry>
        </mxCell>
        <mxCell id="Fiv4lahHjwLAKPsO6Myc-24" value="Command is set up on application" style="edgeLabel;html=1;align=center;verticalAlign=middle;resizable=0;points=[];" vertex="1" connectable="0" parent="Fiv4lahHjwLAKPsO6Myc-4">
          <mxGeometry x="-0.4082" y="2" relative="1" as="geometry">
            <mxPoint as="offset" />
          </mxGeometry>
        </mxCell>
        <mxCell id="Fiv4lahHjwLAKPsO6Myc-1" value="" style="shape=image;html=1;verticalAlign=top;verticalLabelPosition=bottom;labelBackgroundColor=#ffffff;imageAspect=0;aspect=fixed;image=https://cdn4.iconfinder.com/data/icons/logos-brands-5/24/postman-128.png" vertex="1" parent="1">
          <mxGeometry x="330" y="20" width="88" height="88" as="geometry" />
        </mxCell>
        <mxCell id="Fiv4lahHjwLAKPsO6Myc-5" style="edgeStyle=orthogonalEdgeStyle;rounded=0;orthogonalLoop=1;jettySize=auto;html=1;exitX=1;exitY=0.25;exitDx=0;exitDy=0;entryX=0;entryY=0.5;entryDx=0;entryDy=0;" edge="1" parent="1" source="Fiv4lahHjwLAKPsO6Myc-2" target="Fiv4lahHjwLAKPsO6Myc-27">
          <mxGeometry relative="1" as="geometry">
            <mxPoint x="720" y="292" as="targetPoint" />
          </mxGeometry>
        </mxCell>
        <mxCell id="Fiv4lahHjwLAKPsO6Myc-6" value="slash command goes to...?" style="edgeLabel;html=1;align=center;verticalAlign=middle;resizable=0;points=[];" vertex="1" connectable="0" parent="Fiv4lahHjwLAKPsO6Myc-5">
          <mxGeometry x="-0.1629" relative="1" as="geometry">
            <mxPoint as="offset" />
          </mxGeometry>
        </mxCell>
        <mxCell id="Fiv4lahHjwLAKPsO6Myc-2" value="" style="shape=image;html=1;verticalAlign=top;verticalLabelPosition=bottom;labelBackgroundColor=#ffffff;imageAspect=0;aspect=fixed;image=https://cdn4.iconfinder.com/data/icons/logos-and-brands/512/91_Discord_logo_logos-128.png" vertex="1" parent="1">
          <mxGeometry x="349.99999999999994" y="260" width="128" height="128" as="geometry" />
        </mxCell>
        <mxCell id="Fiv4lahHjwLAKPsO6Myc-9" style="edgeStyle=orthogonalEdgeStyle;rounded=0;orthogonalLoop=1;jettySize=auto;html=1;exitX=0;exitY=0.25;exitDx=0;exitDy=0;" edge="1" parent="1" source="Fiv4lahHjwLAKPsO6Myc-3" target="Fiv4lahHjwLAKPsO6Myc-21">
          <mxGeometry relative="1" as="geometry">
            <mxPoint x="135" y="350.10033807488685" as="targetPoint" />
          </mxGeometry>
        </mxCell>
        <mxCell id="Fiv4lahHjwLAKPsO6Myc-11" value="Dev generates and copies OAuth2 URL" style="edgeLabel;html=1;align=center;verticalAlign=middle;resizable=0;points=[];" vertex="1" connectable="0" parent="Fiv4lahHjwLAKPsO6Myc-9">
          <mxGeometry x="-0.2979" y="-1" relative="1" as="geometry">
            <mxPoint as="offset" />
          </mxGeometry>
        </mxCell>
        <mxCell id="Fiv4lahHjwLAKPsO6Myc-25" style="edgeStyle=orthogonalEdgeStyle;rounded=0;orthogonalLoop=1;jettySize=auto;html=1;entryX=1;entryY=0.75;entryDx=0;entryDy=0;exitX=0;exitY=0.5;exitDx=0;exitDy=0;" edge="1" parent="1" source="Fiv4lahHjwLAKPsO6Myc-3" target="Fiv4lahHjwLAKPsO6Myc-2">
          <mxGeometry relative="1" as="geometry">
            <Array as="points">
              <mxPoint x="1024" y="126" />
              <mxPoint x="1024" y="356" />
            </Array>
          </mxGeometry>
        </mxCell>
        <mxCell id="Fiv4lahHjwLAKPsO6Myc-26" value="application is registered to server" style="edgeLabel;html=1;align=center;verticalAlign=middle;resizable=0;points=[];" vertex="1" connectable="0" parent="Fiv4lahHjwLAKPsO6Myc-25">
          <mxGeometry x="-0.0234" y="1" relative="1" as="geometry">
            <mxPoint as="offset" />
          </mxGeometry>
        </mxCell>
        <mxCell id="Fiv4lahHjwLAKPsO6Myc-3" value="" style="shape=image;html=1;verticalAlign=top;verticalLabelPosition=bottom;labelBackgroundColor=#ffffff;imageAspect=0;aspect=fixed;image=https://cdn4.iconfinder.com/data/icons/logos-brands-5/24/discord-128.png" vertex="1" parent="1">
          <mxGeometry x="1240" y="62" width="128" height="128" as="geometry" />
        </mxCell>
        <mxCell id="Fiv4lahHjwLAKPsO6Myc-14" style="edgeStyle=orthogonalEdgeStyle;rounded=0;orthogonalLoop=1;jettySize=auto;html=1;entryX=0.5;entryY=1;entryDx=0;entryDy=0;" edge="1" parent="1" source="Fiv4lahHjwLAKPsO6Myc-7" target="Fiv4lahHjwLAKPsO6Myc-3">
          <mxGeometry relative="1" as="geometry">
            <Array as="points">
              <mxPoint x="1304" y="660" />
            </Array>
          </mxGeometry>
        </mxCell>
        <mxCell id="Fiv4lahHjwLAKPsO6Myc-15" value="OAuth2 approves application to server" style="edgeLabel;html=1;align=center;verticalAlign=middle;resizable=0;points=[];" vertex="1" connectable="0" parent="Fiv4lahHjwLAKPsO6Myc-14">
          <mxGeometry x="-0.1782" y="-3" relative="1" as="geometry">
            <mxPoint y="-15" as="offset" />
          </mxGeometry>
        </mxCell>
        <mxCell id="Fiv4lahHjwLAKPsO6Myc-7" value="" style="dashed=0;outlineConnect=0;html=1;align=center;labelPosition=center;verticalLabelPosition=bottom;verticalAlign=top;shape=mxgraph.weblogos.chrome" vertex="1" parent="1">
          <mxGeometry x="620" y="610" width="74.8" height="75.4" as="geometry" />
        </mxCell>
        <mxCell id="Fiv4lahHjwLAKPsO6Myc-10" style="edgeStyle=orthogonalEdgeStyle;rounded=0;orthogonalLoop=1;jettySize=auto;html=1;exitX=0.9;exitY=0.2;exitDx=0;exitDy=0;exitPerimeter=0;" edge="1" parent="1" source="Fiv4lahHjwLAKPsO6Myc-21" target="Fiv4lahHjwLAKPsO6Myc-2">
          <mxGeometry relative="1" as="geometry">
            <mxPoint x="200" y="415" as="sourcePoint" />
            <Array as="points">
              <mxPoint x="250" y="358" />
              <mxPoint x="250" y="290" />
            </Array>
          </mxGeometry>
        </mxCell>
        <mxCell id="Fiv4lahHjwLAKPsO6Myc-16" value="User executes slash command" style="edgeLabel;html=1;align=center;verticalAlign=middle;resizable=0;points=[];" vertex="1" connectable="0" parent="Fiv4lahHjwLAKPsO6Myc-10">
          <mxGeometry x="-0.131" y="1" relative="1" as="geometry">
            <mxPoint as="offset" />
          </mxGeometry>
        </mxCell>
        <mxCell id="Fiv4lahHjwLAKPsO6Myc-12" style="edgeStyle=orthogonalEdgeStyle;rounded=0;orthogonalLoop=1;jettySize=auto;html=1;exitX=0.28;exitY=0.99;exitDx=0;exitDy=0;exitPerimeter=0;" edge="1" parent="1" source="Fiv4lahHjwLAKPsO6Myc-21" target="Fiv4lahHjwLAKPsO6Myc-7">
          <mxGeometry relative="1" as="geometry">
            <mxPoint x="200" y="415" as="sourcePoint" />
            <Array as="points">
              <mxPoint x="71" y="660" />
            </Array>
          </mxGeometry>
        </mxCell>
        <mxCell id="Fiv4lahHjwLAKPsO6Myc-13" value="Dev opens OAuth2 link" style="edgeLabel;html=1;align=center;verticalAlign=middle;resizable=0;points=[];" vertex="1" connectable="0" parent="Fiv4lahHjwLAKPsO6Myc-12">
          <mxGeometry x="-0.0675" y="-4" relative="1" as="geometry">
            <mxPoint as="offset" />
          </mxGeometry>
        </mxCell>
        <mxCell id="Fiv4lahHjwLAKPsO6Myc-22" style="edgeStyle=orthogonalEdgeStyle;rounded=0;orthogonalLoop=1;jettySize=auto;html=1;entryX=0;entryY=0.5;entryDx=0;entryDy=0;exitX=0.1;exitY=0.2;exitDx=0;exitDy=0;exitPerimeter=0;" edge="1" parent="1" source="Fiv4lahHjwLAKPsO6Myc-21" target="Fiv4lahHjwLAKPsO6Myc-1">
          <mxGeometry relative="1" as="geometry">
            <Array as="points">
              <mxPoint x="51" y="64" />
            </Array>
          </mxGeometry>
        </mxCell>
        <mxCell id="Fiv4lahHjwLAKPsO6Myc-23" value="Dev sends register command" style="edgeLabel;html=1;align=center;verticalAlign=middle;resizable=0;points=[];" vertex="1" connectable="0" parent="Fiv4lahHjwLAKPsO6Myc-22">
          <mxGeometry x="-0.3396" y="-2" relative="1" as="geometry">
            <mxPoint x="97" y="-118" as="offset" />
          </mxGeometry>
        </mxCell>
        <mxCell id="Fiv4lahHjwLAKPsO6Myc-30" style="edgeStyle=orthogonalEdgeStyle;rounded=0;orthogonalLoop=1;jettySize=auto;html=1;entryX=0;entryY=0.75;entryDx=0;entryDy=0;" edge="1" parent="1" source="Fiv4lahHjwLAKPsO6Myc-21" target="Fiv4lahHjwLAKPsO6Myc-3">
          <mxGeometry relative="1" as="geometry">
            <Array as="points">
              <mxPoint x="1150" y="385" />
              <mxPoint x="1150" y="158" />
            </Array>
          </mxGeometry>
        </mxCell>
        <mxCell id="Fiv4lahHjwLAKPsO6Myc-31" value="Dev sets the interaction endpoint" style="edgeLabel;html=1;align=center;verticalAlign=middle;resizable=0;points=[];" vertex="1" connectable="0" parent="Fiv4lahHjwLAKPsO6Myc-30">
          <mxGeometry x="-0.2787" y="3" relative="1" as="geometry">
            <mxPoint as="offset" />
          </mxGeometry>
        </mxCell>
        <mxCell id="Fiv4lahHjwLAKPsO6Myc-32" style="edgeStyle=orthogonalEdgeStyle;rounded=0;orthogonalLoop=1;jettySize=auto;html=1;entryX=0.5;entryY=1;entryDx=0;entryDy=0;entryPerimeter=0;" edge="1" parent="1" source="Fiv4lahHjwLAKPsO6Myc-21" target="Fiv4lahHjwLAKPsO6Myc-28">
          <mxGeometry relative="1" as="geometry">
            <Array as="points">
              <mxPoint x="95" y="450" />
              <mxPoint x="931" y="450" />
            </Array>
          </mxGeometry>
        </mxCell>
        <mxCell id="Fiv4lahHjwLAKPsO6Myc-33" value="Dev creates appropriate endpoint for interactions (API Gateway and Lambda?)" style="edgeLabel;html=1;align=center;verticalAlign=middle;resizable=0;points=[];" vertex="1" connectable="0" parent="Fiv4lahHjwLAKPsO6Myc-32">
          <mxGeometry x="-0.2428" y="2" relative="1" as="geometry">
            <mxPoint as="offset" />
          </mxGeometry>
        </mxCell>
        <mxCell id="Fiv4lahHjwLAKPsO6Myc-21" value="" style="html=1;dashed=0;whitespace=wrap;fillColor=#2875E2;strokeColor=#ffffff;points=[[0.005,0.63,0],[0.1,0.2,0],[0.9,0.2,0],[0.5,0,0],[0.995,0.63,0],[0.72,0.99,0],[0.5,1,0],[0.28,0.99,0]];shape=mxgraph.kubernetes.icon;prIcon=user" vertex="1" parent="1">
          <mxGeometry x="40" y="340" width="110" height="90" as="geometry" />
        </mxCell>
        <mxCell id="Fiv4lahHjwLAKPsO6Myc-29" style="edgeStyle=orthogonalEdgeStyle;rounded=0;orthogonalLoop=1;jettySize=auto;html=1;entryX=0;entryY=0.5;entryDx=0;entryDy=0;entryPerimeter=0;" edge="1" parent="1" source="Fiv4lahHjwLAKPsO6Myc-27" target="Fiv4lahHjwLAKPsO6Myc-28">
          <mxGeometry relative="1" as="geometry" />
        </mxCell>
        <mxCell id="Fiv4lahHjwLAKPsO6Myc-27" value="" style="shape=image;html=1;verticalAlign=top;verticalLabelPosition=bottom;labelBackgroundColor=#ffffff;imageAspect=0;aspect=fixed;image=https://cdn4.iconfinder.com/data/icons/evil-icons-user-interface/64/question-128.png" vertex="1" parent="1">
          <mxGeometry x="694.8" y="190" width="128" height="128" as="geometry" />
        </mxCell>
        <mxCell id="Fiv4lahHjwLAKPsO6Myc-28" value="" style="points=[[0,0,0],[0.25,0,0],[0.5,0,0],[0.75,0,0],[1,0,0],[0,1,0],[0.25,1,0],[0.5,1,0],[0.75,1,0],[1,1,0],[0,0.25,0],[0,0.5,0],[0,0.75,0],[1,0.25,0],[1,0.5,0],[1,0.75,0]];outlineConnect=0;fontColor=#232F3E;gradientColor=#945DF2;gradientDirection=north;fillColor=#5A30B5;strokeColor=#ffffff;dashed=0;verticalLabelPosition=bottom;verticalAlign=top;align=center;html=1;fontSize=12;fontStyle=0;aspect=fixed;shape=mxgraph.aws4.resourceIcon;resIcon=mxgraph.aws4.api_gateway;" vertex="1" parent="1">
          <mxGeometry x="880" y="203.5" width="101" height="101" as="geometry" />
        </mxCell>
      </root>
    </mxGraphModel>
  </diagram>
</mxfile>
